<svg xmlns="http://www.w3.org/2000/svg" viewBox="0 0 48 48" width="48" height="48">
  <path fill="#EA4335" d="M24 9.5c3.5 0 6.3 1.2 8.6 3.2l6.4-6.4C34.7 2.3 29.8 0 24 0 14.6 0 6.5 5.4 2.6 13.2l7.4 5.7C11.8 13.2 17.4 9.5 24 9.5z"/>
  <path fill="#34A853" d="M46.1 24.5c0-1.6-.1-3.2-.4-4.7H24v9h12.4c-.5 2.9-2.1 5.4-4.4 7.1l6.7 5.2c3.9-3.6 6.4-8.9 6.4-16.6z"/>
  <path fill="#4A90E2" d="M24 48c6.5 0 12-2.1 16-5.8l-6.7-5.2c-1.9 1.3-4.3 2-7 2-6.6 0-12.2-4.5-14.2-10.5l-7.4 5.7C6.5 42.6 14.6 48 24 48z"/>
  <path fill="#FBBC05" d="M9.8 28.5c-.5-1.3-.8-2.7-.8-4.1s.3-2.8.8-4.1l-7.4-5.7C1.3 17.3 0 20.5 0 24s1.3 6.7 3.6 9.4l6.2-4.9z"/>
</svg>
